# xmcd CD Database Entry
#
# Track frame offsets:
# 150
# 15140
# 28790
# 47298
# 64817
# 80109
# 85393
# 99072
# 114427
# 131241
# 151612
# 169339
# 185450
# 195990
# 217215
#
# Disc length: 3099 seconds
#
# Revision: 1
# Processed by: cddbd v1.4PL0 Copyright (c) Steve Scherf et al.
# Submitted via: tcd 2.0b
#
DISCID=bb0c190f
DTITLE=Lynn August - Sause Piquante
DYEAR=1900
DGENRE=
TTITLE0=Bruler Le Chemin-De-Fer a Soir
TTITLE1=Slippin' And Slidin'
TTITLE2=Did You Have Making Me Crying
TTITLE3=Lead On Me
TTITLE4=Love At First Sight
TTITLE5=Jure #3
TTITLE6=It's Too Late
TTITLE7=Rocking Accordion
TTITLE8=The Lord's Gonna Fix It
TTITLE9=La Chanson Du Pain Perdu
TTITLE10=Marked Deck
TTITLE11=You Used To Call Me
TTITLE12=Jure #4
TTITLE13=City Woman (I'm Not Your Country Boy)
TTITLE14=Jaywalkin'
EXTD=
EXTT0=
EXTT1=
EXTT2=
EXTT3=
EXTT4=
EXTT5=
EXTT6=
EXTT7=
EXTT8=
EXTT9=
EXTT10=
EXTT11=
EXTT12=
EXTT13=
EXTT14=
PLAYORDER=
